<svg width="29" height="29" viewBox="0 0 29 29" fill="none" xmlns="http://www.w3.org/2000/svg">
<path fill-rule="evenodd" clip-rule="evenodd" d="M2.41666 14.5C2.41666 7.82637 7.82637 2.41666 14.5 2.41666C21.1736 2.41666 26.5833 7.82637 26.5833 14.5C26.5833 21.1736 21.1736 26.5833 14.5 26.5833C7.82637 26.5833 2.41666 21.1736 2.41666 14.5ZM14.5 4.83332C11.9362 4.83332 9.47748 5.85177 7.66462 7.66462C5.85177 9.47748 4.83332 11.9362 4.83332 14.5C4.83332 17.0638 5.85177 19.5225 7.66462 21.3354C9.47748 23.1482 11.9362 24.1667 14.5 24.1667C17.0638 24.1667 19.5225 23.1482 21.3354 21.3354C23.1482 19.5225 24.1667 17.0638 24.1667 14.5C24.1667 11.9362 23.1482 9.47748 21.3354 7.66462C19.5225 5.85177 17.0638 4.83332 14.5 4.83332Z" fill="#3C4C59"/>
<path fill-rule="evenodd" clip-rule="evenodd" d="M15.7083 8.45833C15.7083 8.13786 15.581 7.83052 15.3544 7.60391C15.1278 7.37731 14.8205 7.25 14.5 7.25C14.1795 7.25 13.8722 7.37731 13.6456 7.60391C13.419 7.83052 13.2917 8.13786 13.2917 8.45833V13.2917H8.45833C8.13786 13.2917 7.83052 13.419 7.60391 13.6456C7.37731 13.8722 7.25 14.1795 7.25 14.5C7.25 14.8205 7.37731 15.1278 7.60391 15.3544C7.83052 15.581 8.13786 15.7083 8.45833 15.7083H13.2917V20.5417C13.2917 20.8621 13.419 21.1695 13.6456 21.3961C13.8722 21.6227 14.1795 21.75 14.5 21.75C14.8205 21.75 15.1278 21.6227 15.3544 21.3961C15.581 21.1695 15.7083 20.8621 15.7083 20.5417V15.7083H20.5417C20.8621 15.7083 21.1695 15.581 21.3961 15.3544C21.6227 15.1278 21.75 14.8205 21.75 14.5C21.75 14.1795 21.6227 13.8722 21.3961 13.6456C21.1695 13.419 20.8621 13.2917 20.5417 13.2917H15.7083V8.45833Z" fill="#3C4C59"/>
</svg>
