<svg width="18" height="20" viewBox="0 0 18 20" fill="none" xmlns="http://www.w3.org/2000/svg">
<path d="M5.33333 11.8333C5.07361 11.8333 4.85606 11.7453 4.68067 11.5693C4.50528 11.3933 4.41728 11.1757 4.41667 10.9166C4.41667 10.6569 4.50467 10.4393 4.68067 10.2639C4.85667 10.0885 5.07422 10.0005 5.33333 9.99992C5.59306 9.99992 5.81092 10.0879 5.98692 10.2639C6.16292 10.4399 6.25061 10.6575 6.25 10.9166C6.25 11.1763 6.162 11.3942 5.986 11.5702C5.81 11.7462 5.59244 11.8339 5.33333 11.8333ZM9 11.8333C8.74028 11.8333 8.52272 11.7453 8.34733 11.5693C8.17194 11.3933 8.08394 11.1757 8.08333 10.9166C8.08333 10.6569 8.17133 10.4393 8.34733 10.2639C8.52333 10.0885 8.74089 10.0005 9 9.99992C9.25972 9.99992 9.47758 10.0879 9.65358 10.2639C9.82958 10.4399 9.91728 10.6575 9.91667 10.9166C9.91667 11.1763 9.82867 11.3942 9.65267 11.5702C9.47667 11.7462 9.25911 11.8339 9 11.8333ZM12.6667 11.8333C12.4069 11.8333 12.1894 11.7453 12.014 11.5693C11.8386 11.3933 11.7506 11.1757 11.75 10.9166C11.75 10.6569 11.838 10.4393 12.014 10.2639C12.19 10.0885 12.4076 10.0005 12.6667 9.99992C12.9264 9.99992 13.1442 10.0879 13.3202 10.2639C13.4963 10.4399 13.5839 10.6575 13.5833 10.9166C13.5833 11.1763 13.4953 11.3942 13.3193 11.5702C13.1433 11.7462 12.9258 11.8339 12.6667 11.8333ZM2.58333 19.1666C2.07917 19.1666 1.64772 18.9872 1.289 18.6285C0.930278 18.2698 0.750611 17.838 0.75 17.3333V4.49992C0.75 3.99575 0.929667 3.56431 1.289 3.20559C1.64833 2.84686 2.07978 2.6672 2.58333 2.66659H3.5V0.833252H5.33333V2.66659H12.6667V0.833252H14.5V2.66659H15.4167C15.9208 2.66659 16.3526 2.84625 16.7119 3.20559C17.0713 3.56492 17.2506 3.99636 17.25 4.49992V17.3333C17.25 17.8374 17.0706 18.2692 16.7119 18.6285C16.3532 18.9878 15.9214 19.1672 15.4167 19.1666H2.58333ZM2.58333 17.3333H15.4167V8.16658H2.58333V17.3333ZM2.58333 6.33325H15.4167V4.49992H2.58333V6.33325Z" fill="black"/>
</svg>
