<svg width="30" height="30" viewBox="0 0 30 30" fill="none" xmlns="http://www.w3.org/2000/svg">
<path d="M22.5 22.5V26.25H7.5V22.5H5.625V26.25C5.625 26.7473 5.82254 27.2242 6.17417 27.5758C6.52581 27.9275 7.00272 28.125 7.5 28.125H22.5C22.9973 28.125 23.4742 27.9275 23.8258 27.5758C24.1775 27.2242 24.375 26.7473 24.375 26.25V22.5H22.5Z" fill="#161556"/>
<path d="M19.6875 19.6875L18.3619 18.3619L15.9375 20.7863V13.125H14.0625V20.7863L11.6381 18.3619L10.3125 19.6875L15 24.375L19.6875 19.6875ZM26.25 3.75V1.875H20.625V11.25H22.5V7.5H25.3125V5.625H22.5V3.75H26.25ZM15.9375 11.25H12.1875V1.875H15.9375C16.6832 1.87574 17.3981 2.1723 17.9254 2.69958C18.4527 3.22687 18.7493 3.94181 18.75 4.6875V8.4375C18.7493 9.18319 18.4527 9.89813 17.9254 10.4254C17.3981 10.9527 16.6832 11.2493 15.9375 11.25ZM14.0625 9.375H15.9375C16.1861 9.37475 16.4244 9.2759 16.6001 9.10014C16.7759 8.92438 16.8748 8.68606 16.875 8.4375V4.6875C16.8748 4.43894 16.7759 4.20062 16.6001 4.02486C16.4244 3.8491 16.1861 3.75025 15.9375 3.75H14.0625V9.375ZM8.4375 1.875H3.75V11.25H5.625V8.4375H8.4375C8.93455 8.43676 9.41103 8.23897 9.7625 7.8875C10.114 7.53603 10.3118 7.05955 10.3125 6.5625V3.75C10.312 3.25287 10.1143 2.77625 9.76278 2.42472C9.41125 2.0732 8.93463 1.8755 8.4375 1.875ZM5.625 6.5625V3.75H8.4375L8.43844 6.5625H5.625Z" fill="#161556"/>
</svg>
