<svg width="20" height="20" viewBox="0 0 20 20" fill="none" xmlns="http://www.w3.org/2000/svg">
<path d="M9.08337 16.1039H10.9167V14.2035H9.08337V16.1039ZM10 0.900635C4.94004 0.900635 0.833374 5.15754 0.833374 10.4027C0.833374 15.6478 4.94004 19.9047 10 19.9047C15.06 19.9047 19.1667 15.6478 19.1667 10.4027C19.1667 5.15754 15.06 0.900635 10 0.900635ZM10 18.0043C5.95754 18.0043 2.66671 14.5931 2.66671 10.4027C2.66671 6.21227 5.95754 2.80104 10 2.80104C14.0425 2.80104 17.3334 6.21227 17.3334 10.4027C17.3334 14.5931 14.0425 18.0043 10 18.0043ZM10 4.70145C7.97421 4.70145 6.33337 6.40231 6.33337 8.50226H8.16671C8.16671 7.45704 8.99171 6.60185 10 6.60185C11.0084 6.60185 11.8334 7.45704 11.8334 8.50226C11.8334 10.4027 9.08337 10.1651 9.08337 13.2533H10.9167C10.9167 11.1153 13.6667 10.8778 13.6667 8.50226C13.6667 6.40231 12.0259 4.70145 10 4.70145Z" fill="#141414"/>
</svg>
