<svg width="20" height="20" viewBox="0 0 20 20" fill="none" xmlns="http://www.w3.org/2000/svg">
<path d="M5.87504 0.833252V4.04159H9.08337V5.87492H5.87504V9.08325H4.04171V5.87492H0.833374V4.04159H4.04171V0.833252H5.87504ZM10.9167 4.04159H19.1667V5.87492H10.9167V4.04159ZM8.87804 12.76L6.28571 15.3533L9.02562 18.0923L7.72854 19.3893L4.98862 16.6485L2.39629 19.2427L1.10012 17.9456L3.69246 15.3533L1.24679 12.9076L2.54387 11.6105L4.98862 14.0562L7.58187 11.4638L8.87804 12.76ZM14.125 11.8314H15.962V13.6684H14.125V11.8314ZM10.9167 14.5833H19.1667V16.4166H10.9167V14.5833ZM14.125 17.3314H15.962V19.1684H14.125V17.3314Z" fill="black"/>
</svg>
