<svg width="18" height="18" viewBox="0 0 18 18" fill="none" xmlns="http://www.w3.org/2000/svg">
<path d="M9.97773 0.200195H8.02217V9.97797H9.97773V0.200195ZM14.7004 2.32197L13.312 3.71042C14.8568 4.9522 15.8444 6.85886 15.8444 9.0002C15.8444 12.7842 12.784 15.8446 8.99995 15.8446C5.21595 15.8446 2.15551 12.7842 2.15551 9.0002C2.15551 6.85886 3.14306 4.9522 4.67817 3.70064L3.29951 2.32197C1.40262 3.93531 0.199951 6.32108 0.199951 9.0002C0.199951 13.8598 4.1404 17.8002 8.99995 17.8002C13.8595 17.8002 17.8 13.8598 17.8 9.0002C17.8 6.32108 16.5973 3.93531 14.7004 2.32197Z" fill="#EB5757"/>
</svg>
