<svg width="18" height="21" viewBox="0 0 18 21" fill="none" xmlns="http://www.w3.org/2000/svg">
<path d="M17.25 16.4166V17.3333H0.75V16.4166L2.58333 14.5833V9.08325C2.58333 6.24159 4.44417 3.73909 7.16667 2.93242C7.16667 2.84075 7.16667 2.75825 7.16667 2.66659C7.16667 2.18036 7.35982 1.71404 7.70364 1.37022C8.04745 1.02641 8.51377 0.833252 9 0.833252C9.48623 0.833252 9.95255 1.02641 10.2964 1.37022C10.6402 1.71404 10.8333 2.18036 10.8333 2.66659C10.8333 2.75825 10.8333 2.84075 10.8333 2.93242C13.5558 3.73909 15.4167 6.24159 15.4167 9.08325V14.5833L17.25 16.4166ZM10.8333 18.2499C10.8333 18.7361 10.6402 19.2025 10.2964 19.5463C9.95255 19.8901 9.48623 20.0833 9 20.0833C8.51377 20.0833 8.04745 19.8901 7.70364 19.5463C7.35982 19.2025 7.16667 18.7361 7.16667 18.2499" fill="#141414"/>
</svg>
