<svg width="22" height="22" viewBox="0 0 22 22" fill="none" xmlns="http://www.w3.org/2000/svg">
<g opacity="0.7">
<path d="M21 12.289V8.32622C21 3.37274 19 1.39135 14 1.39135H8C3 1.39135 1 3.37274 1 8.32622V14.2704C1 19.2239 3 21.2053 8 21.2053H12" stroke="#00CCD9" stroke-width="1.5" stroke-linecap="round" stroke-linejoin="round"/>
<path d="M6.33008 13.7652L8.71008 10.7039C9.05008 10.268 9.68009 10.1887 10.1201 10.5256L11.9501 11.9522C12.3901 12.289 13.0201 12.2098 13.3601 11.7838L15.6701 8.83148" stroke="#00CCD9" stroke-width="1.5" stroke-linecap="round" stroke-linejoin="round"/>
<path d="M18.48 15.0827L18.76 15.6474C18.9 15.9248 19.25 16.1824 19.56 16.2418L19.94 16.3012C21.08 16.4895 21.35 17.3217 20.53 18.1439L20.18 18.4907C19.95 18.7284 19.82 19.1842 19.89 19.5012L19.94 19.7092C20.25 21.0764 19.52 21.6015 18.32 20.8882L18.06 20.7396C17.75 20.5612 17.25 20.5612 16.94 20.7396L16.68 20.8882C15.47 21.6114 14.74 21.0764 15.06 19.7092L15.1099 19.5012C15.1799 19.1842 15.05 18.7284 14.82 18.4907L14.47 18.1439C13.65 17.3217 13.92 16.4895 15.06 16.3012L15.44 16.2418C15.74 16.1923 16.1 15.9248 16.24 15.6474L16.52 15.0827C17.06 14.0028 17.94 14.0028 18.48 15.0827Z" stroke="#00CCD9" stroke-width="1.5" stroke-linecap="round" stroke-linejoin="round"/>
</g>
</svg>
