<svg width="18" height="10" viewBox="0 0 18 10" fill="none" xmlns="http://www.w3.org/2000/svg">
<path d="M1.66667 5.91675C2.17083 5.91675 2.58333 5.50425 2.58333 5.00008C2.58333 4.49591 2.17083 4.08341 1.66667 4.08341C1.1625 4.08341 0.75 4.49591 0.75 5.00008C0.75 5.50425 1.1625 5.91675 1.66667 5.91675ZM1.66667 9.58342C2.17083 9.58342 2.58333 9.17091 2.58333 8.66675C2.58333 8.16258 2.17083 7.75008 1.66667 7.75008C1.1625 7.75008 0.75 8.16258 0.75 8.66675C0.75 9.17091 1.1625 9.58342 1.66667 9.58342ZM1.66667 2.25008C2.17083 2.25008 2.58333 1.83758 2.58333 1.33341C2.58333 0.829248 2.17083 0.416748 1.66667 0.416748C1.1625 0.416748 0.75 0.829248 0.75 1.33341C0.75 1.83758 1.1625 2.25008 1.66667 2.25008ZM5.33333 5.91675H16.3333C16.8375 5.91675 17.25 5.50425 17.25 5.00008C17.25 4.49591 16.8375 4.08341 16.3333 4.08341H5.33333C4.82917 4.08341 4.41667 4.49591 4.41667 5.00008C4.41667 5.50425 4.82917 5.91675 5.33333 5.91675ZM5.33333 9.58342H16.3333C16.8375 9.58342 17.25 9.17091 17.25 8.66675C17.25 8.16258 16.8375 7.75008 16.3333 7.75008H5.33333C4.82917 7.75008 4.41667 8.16258 4.41667 8.66675C4.41667 9.17091 4.82917 9.58342 5.33333 9.58342ZM4.41667 1.33341C4.41667 1.83758 4.82917 2.25008 5.33333 2.25008H16.3333C16.8375 2.25008 17.25 1.83758 17.25 1.33341C17.25 0.829248 16.8375 0.416748 16.3333 0.416748H5.33333C4.82917 0.416748 4.41667 0.829248 4.41667 1.33341ZM1.66667 5.91675C2.17083 5.91675 2.58333 5.50425 2.58333 5.00008C2.58333 4.49591 2.17083 4.08341 1.66667 4.08341C1.1625 4.08341 0.75 4.49591 0.75 5.00008C0.75 5.50425 1.1625 5.91675 1.66667 5.91675ZM1.66667 9.58342C2.17083 9.58342 2.58333 9.17091 2.58333 8.66675C2.58333 8.16258 2.17083 7.75008 1.66667 7.75008C1.1625 7.75008 0.75 8.16258 0.75 8.66675C0.75 9.17091 1.1625 9.58342 1.66667 9.58342ZM1.66667 2.25008C2.17083 2.25008 2.58333 1.83758 2.58333 1.33341C2.58333 0.829248 2.17083 0.416748 1.66667 0.416748C1.1625 0.416748 0.75 0.829248 0.75 1.33341C0.75 1.83758 1.1625 2.25008 1.66667 2.25008ZM5.33333 5.91675H16.3333C16.8375 5.91675 17.25 5.50425 17.25 5.00008C17.25 4.49591 16.8375 4.08341 16.3333 4.08341H5.33333C4.82917 4.08341 4.41667 4.49591 4.41667 5.00008C4.41667 5.50425 4.82917 5.91675 5.33333 5.91675ZM5.33333 9.58342H16.3333C16.8375 9.58342 17.25 9.17091 17.25 8.66675C17.25 8.16258 16.8375 7.75008 16.3333 7.75008H5.33333C4.82917 7.75008 4.41667 8.16258 4.41667 8.66675C4.41667 9.17091 4.82917 9.58342 5.33333 9.58342ZM4.41667 1.33341C4.41667 1.83758 4.82917 2.25008 5.33333 2.25008H16.3333C16.8375 2.25008 17.25 1.83758 17.25 1.33341C17.25 0.829248 16.8375 0.416748 16.3333 0.416748H5.33333C4.82917 0.416748 4.41667 0.829248 4.41667 1.33341Z" fill="black"/>
</svg>
