<svg width="40" height="40" viewBox="0 0 40 40" fill="none" xmlns="http://www.w3.org/2000/svg">
<path d="M10.4167 26.6666H12.9167V26.25C12.9167 24.2778 13.6042 22.6041 14.9792 21.2291C16.3542 19.8541 18.0278 19.1666 20 19.1666C21.9722 19.1666 23.6458 19.8541 25.0208 21.2291C26.3958 22.6041 27.0833 24.2778 27.0833 26.25V26.6666H29.5833V26.25C29.5833 23.5833 28.6528 21.3194 26.7917 19.4583C24.9305 17.5972 22.6667 16.6666 20 16.6666C17.3333 16.6666 15.0694 17.5972 13.2083 19.4583C11.3472 21.3194 10.4167 23.5833 10.4167 26.25V26.6666ZM11.8333 15.4166C12.9722 15.25 14.1736 14.8055 15.4375 14.0833C16.7014 13.3611 17.7083 12.5416 18.4583 11.625L16.5417 10.0416C15.9861 10.7083 15.2153 11.3194 14.2292 11.875C13.243 12.4305 12.3333 12.7778 11.5 12.9166L11.8333 15.4166ZM28.1667 15.4166L28.5 12.9166C27.6667 12.7778 26.7569 12.4305 25.7708 11.875C24.7847 11.3194 24.0139 10.7083 23.4583 10.0416L21.5417 11.625C22.2917 12.5416 23.2986 13.3611 24.5625 14.0833C25.8264 14.8055 27.0278 15.25 28.1667 15.4166ZM20 36.6666C17.6944 36.6666 15.5278 36.2291 13.5 35.3541C11.4722 34.4791 9.70833 33.2916 8.20833 31.7916C6.70833 30.2916 5.52083 28.5278 4.64583 26.5C3.77083 24.4722 3.33333 22.3055 3.33333 20C3.33333 17.6944 3.77083 15.5278 4.64583 13.5C5.52083 11.4722 6.70833 9.70831 8.20833 8.20831C9.70833 6.70831 11.4722 5.52081 13.5 4.64581C15.5278 3.77081 17.6944 3.33331 20 3.33331C22.3055 3.33331 24.4722 3.77081 26.5 4.64581C28.5278 5.52081 30.2917 6.70831 31.7917 8.20831C33.2917 9.70831 34.4792 11.4722 35.3542 13.5C36.2292 15.5278 36.6667 17.6944 36.6667 20C36.6667 22.3055 36.2292 24.4722 35.3542 26.5C34.4792 28.5278 33.2917 30.2916 31.7917 31.7916C30.2917 33.2916 28.5278 34.4791 26.5 35.3541C24.4722 36.2291 22.3055 36.6666 20 36.6666ZM20 33.3333C23.7222 33.3333 26.875 32.0416 29.4583 29.4583C32.0417 26.875 33.3333 23.7222 33.3333 20C33.3333 16.2778 32.0417 13.125 29.4583 10.5416C26.875 7.95831 23.7222 6.66665 20 6.66665C16.2778 6.66665 13.125 7.95831 10.5417 10.5416C7.95833 13.125 6.66666 16.2778 6.66666 20C6.66666 23.7222 7.95833 26.875 10.5417 29.4583C13.125 32.0416 16.2778 33.3333 20 33.3333Z" fill="white"/>
</svg>
