<svg width="22" height="24" viewBox="0 0 22 24" fill="none" xmlns="http://www.w3.org/2000/svg">
<g clip-path="url(#clip0_159_1026)">
<path d="M17.4167 2.50978H13.585C13.2 1.40755 12.1917 0.609375 11 0.609375C9.80833 0.609375 8.8 1.40755 8.415 2.50978H4.58333C3.575 2.50978 2.75 3.36496 2.75 4.41019V19.6134C2.75 20.6587 3.575 21.5138 4.58333 21.5138H17.4167C18.425 21.5138 19.25 20.6587 19.25 19.6134V4.41019C19.25 3.36496 18.425 2.50978 17.4167 2.50978ZM11 2.50978C11.5042 2.50978 11.9167 2.93737 11.9167 3.45998C11.9167 3.9826 11.5042 4.41019 11 4.41019C10.4958 4.41019 10.0833 3.9826 10.0833 3.45998C10.0833 2.93737 10.4958 2.50978 11 2.50978ZM17.4167 19.6134H4.58333V4.41019H6.41667V7.2608H15.5833V4.41019H17.4167V19.6134Z" fill="#141414"/>
<path d="M6 9.93848H16" stroke="#141414"/>
<path d="M7 12.0117H15" stroke="#141414"/>
<path d="M8 14.085H14" stroke="#141414"/>
<path d="M9 16.1582H13" stroke="#141414"/>
</g>
<defs>
<clipPath id="clip0_159_1026">
<rect width="22" height="22.8049" fill="white" transform="translate(0 0.609375)"/>
</clipPath>
</defs>
</svg>
